<svg id="Layer_1" data-name="Layer 1" xmlns="http://www.w3.org/2000/svg" viewBox="0 0 575.126 100.734">
  <defs>
    <style>
      .cls-1 {
        fill: #29abe2;
      }

      .cls-2 {
        fill: #8cc63f;
      }
    </style>
  </defs>
  <title>creative_conf_logo</title>
  <g>
    <g>
      <path class="cls-1" d="M263.115,452c.005,0,.005-.207.011-.281,0,.116-.005.19-.011.3a50.375,50.375,0,1,1,0-4.006c.005.111.011.149.011.266-.005-.074-.005-.28-.011-.28h-14.37l-.011-.071a35.987,35.987,0,1,0,0,4.135l.011-.064Z" transform="translate(-162.437 -399.642)"/>
      <path class="cls-2" d="M224.568,452h21.524A32.964,32.964,0,0,1,212.8,483.419a33.412,33.412,0,0,1,0-66.823A32.95,32.95,0,0,1,246.091,448H224.568c-.89-5-5.819-9.988-11.771-9.988a11.978,11.978,0,0,0,0,23.956C218.748,461.968,223.678,457,224.568,452Z" transform="translate(-162.437 -399.642)"/>
    </g>
    <g>
      <path d="M329.809,465.033a19.448,19.448,0,0,1-3.3,2.028,16.669,16.669,0,0,1-3.874,1.3,22.688,22.688,0,0,1-4.654.442,18.478,18.478,0,0,1-7.384-1.456,18.107,18.107,0,0,1-5.851-3.978,18.338,18.338,0,0,1-3.874-5.954,20.164,20.164,0,0,1-.025-14.717,18.126,18.126,0,0,1,9.8-10.062,18.948,18.948,0,0,1,7.592-1.482,23.046,23.046,0,0,1,4.55.416,18.582,18.582,0,0,1,3.771,1.17,17.694,17.694,0,0,1,3.172,1.795,24.86,24.86,0,0,1,2.756,2.287l-4.107,4.732a20.53,20.53,0,0,0-4.629-3.276,12.061,12.061,0,0,0-5.563-1.248,11.4,11.4,0,0,0-4.811,1.015,11.912,11.912,0,0,0-3.821,2.756,12.368,12.368,0,0,0-2.5,4.082,14.146,14.146,0,0,0-.884,5.044,14.357,14.357,0,0,0,.884,5.07,12.605,12.605,0,0,0,2.5,4.134,11.741,11.741,0,0,0,3.821,2.782,11.4,11.4,0,0,0,4.811,1.014,12,12,0,0,0,5.72-1.274,22.483,22.483,0,0,0,4.732-3.458l4.107,4.16A23.408,23.408,0,0,1,329.809,465.033Z" transform="translate(-162.437 -399.642)"/>
      <path d="M362.8,468.179l-8.972-12.688H345.8v12.688h-6.345v-36.4h16.225a18.487,18.487,0,0,1,5.642.807,12.245,12.245,0,0,1,4.264,2.288,9.856,9.856,0,0,1,2.679,3.64,12.976,12.976,0,0,1,.286,8.892,10.588,10.588,0,0,1-1.794,3.173,10.817,10.817,0,0,1-2.73,2.34,13.5,13.5,0,0,1-3.51,1.481l9.828,13.78Zm-2.087-29.088a8.913,8.913,0,0,0-5.581-1.54H345.8v12.271h9.389a8.365,8.365,0,0,0,5.477-1.67,5.514,5.514,0,0,0,2.034-4.491A5.434,5.434,0,0,0,360.716,439.091Z" transform="translate(-162.437 -399.642)"/>
      <path d="M403.986,437.551H383.394v9.36h18.252v5.771H383.394v9.724h20.852v5.772h-27.2v-36.4h26.937Z" transform="translate(-162.437 -399.642)"/>
      <path d="M446.729,468.179h-6.76l-3.691-8.788H419.066l-3.744,8.788h-6.553l16.017-36.66h5.928Zm-19.084-29.016-6.239,14.56h12.531Z" transform="translate(-162.437 -399.642)"/>
      <path d="M463.682,468.179h-6.448V437.707H445.69v-5.929h29.536v5.929H463.682Z" transform="translate(-162.437 -399.642)"/>
      <path d="M488.693,431.779v36.4h-6.344v-36.4Z" transform="translate(-162.437 -399.642)"/>
      <path d="M524.313,431.779h6.916L516.1,468.439h-5.615l-15.133-36.66h7.072l10.972,27.977Z" transform="translate(-162.437 -399.642)"/>
      <path d="M564.4,437.551H543.813v9.36h18.252v5.771H543.813v9.724h20.852v5.772h-27.2v-36.4H564.4Z" transform="translate(-162.437 -399.642)"/>
      <path d="M616.638,465.033a19.448,19.448,0,0,1-3.3,2.028,16.669,16.669,0,0,1-3.874,1.3,22.688,22.688,0,0,1-4.654.442,18.478,18.478,0,0,1-7.384-1.456,18.107,18.107,0,0,1-5.851-3.978,18.338,18.338,0,0,1-3.874-5.954,20.164,20.164,0,0,1-.025-14.717,18.126,18.126,0,0,1,9.8-10.062,18.948,18.948,0,0,1,7.592-1.482,23.046,23.046,0,0,1,4.55.416,18.582,18.582,0,0,1,3.771,1.17,17.694,17.694,0,0,1,3.172,1.795,24.86,24.86,0,0,1,2.756,2.287l-4.107,4.732a20.53,20.53,0,0,0-4.629-3.276,12.061,12.061,0,0,0-5.563-1.248,11.4,11.4,0,0,0-4.811,1.015,11.912,11.912,0,0,0-3.821,2.756,12.368,12.368,0,0,0-2.5,4.082,14.146,14.146,0,0,0-.884,5.044,14.357,14.357,0,0,0,.884,5.07,12.605,12.605,0,0,0,2.5,4.134,11.741,11.741,0,0,0,3.821,2.782,11.4,11.4,0,0,0,4.811,1.014,12,12,0,0,0,5.72-1.274,22.483,22.483,0,0,0,4.732-3.458l4.107,4.16A23.408,23.408,0,0,1,616.638,465.033Z" transform="translate(-162.437 -399.642)"/>
      <path d="M660.292,457.207a18.28,18.28,0,0,1-3.951,6.006,18.967,18.967,0,0,1-13.729,5.59,19.462,19.462,0,0,1-7.7-1.482,18.061,18.061,0,0,1-9.88-10.01,19.584,19.584,0,0,1,0-14.56,18.282,18.282,0,0,1,3.952-6.006,18.973,18.973,0,0,1,13.729-5.591,19.457,19.457,0,0,1,7.7,1.482,18.061,18.061,0,0,1,9.88,10.01,19.574,19.574,0,0,1,0,14.561Zm-6.214-12.194a12.746,12.746,0,0,0-2.548-4.134,12.138,12.138,0,0,0-3.926-2.809,12.579,12.579,0,0,0-9.958-.025,11.768,11.768,0,0,0-3.874,2.756,12.676,12.676,0,0,0-2.522,4.108,14.3,14.3,0,0,0,0,10.035,12.726,12.726,0,0,0,2.549,4.135,12.111,12.111,0,0,0,3.926,2.808,12.585,12.585,0,0,0,9.958.026,11.781,11.781,0,0,0,3.874-2.757,12.655,12.655,0,0,0,2.521-4.107,14.288,14.288,0,0,0,0-10.036Z" transform="translate(-162.437 -399.642)"/>
      <path d="M694.82,431.779h6.345v36.4h-5.346l-20.03-25.9v25.9h-6.345v-36.4h5.916l19.46,25.168Z" transform="translate(-162.437 -399.642)"/>
      <path d="M737.563,437.551h-20.7v10.036h18.355v5.771H716.868v14.82h-6.345v-36.4h27.04Z" transform="translate(-162.437 -399.642)"/>
    </g>
  </g>
</svg>
